<svg xmlns="http://www.w3.org/2000/svg" xmlns:xlink="http://www.w3.org/1999/xlink" viewBox="0,0,256,256" width="30px" height="30px" fill-rule="nonzero"><g transform="translate(23.04,23.04) scale(0.82,0.82)"><g fill="#1f2125" fill-rule="nonzero" stroke="none" stroke-width="1" stroke-linecap="butt" stroke-linejoin="miter" stroke-miterlimit="10" stroke-dasharray="" stroke-dashoffset="0" font-family="none" font-weight="none" font-size="none" text-anchor="none" style="mix-blend-mode: normal"><path d="M-28.09756,284.09756v-312.19512h312.19512v312.19512z" id="bgRectangle"></path></g><g fill="none" fill-rule="nonzero" stroke="#f9ac54" stroke-width="8.53333" stroke-linecap="butt" stroke-linejoin="miter" stroke-miterlimit="10" stroke-dasharray="" stroke-dashoffset="0" font-family="none" font-weight="none" font-size="none" text-anchor="none" style="mix-blend-mode: normal"><path d="M128,250.48804c-67.64828,0 -122.48804,-54.83976 -122.48804,-122.48804v0c0,-67.64828 54.83976,-122.48804 122.48804,-122.48804v0c67.64828,0 122.48804,54.83976 122.48804,122.48804v0c0,67.64828 -54.83976,122.48804 -122.48804,122.48804z" id="shape"></path></g><g fill="#f9ac54" fill-rule="nonzero" stroke="none" stroke-width="1" stroke-linecap="butt" stroke-linejoin="miter" stroke-miterlimit="10" stroke-dasharray="" stroke-dashoffset="0" font-family="none" font-weight="none" font-size="none" text-anchor="none" style="mix-blend-mode: normal"><g transform="scale(8.53333,8.53333)"><path d="M12,27v-12h-4v-4h4v-2.148c0,-4.067 1.981,-5.852 5.361,-5.852c1.619,0 2.475,0.12 2.88,0.175v3.825h-2.305c-1.435,0 -1.936,0.757 -1.936,2.291v1.709h4.205l-0.571,4h-3.634v12z"></path></g></g></g></svg>